<?xml version="1.0" standalone="yes"?>
<svg xmlns="http://www.w3.org/2000/svg" width="1514" height="1210">
<path style="fill:#020201; stroke:none;" d="M0 0L0 1210L1514 1210L1514 0L0 0z"/>
<path style="fill:#efcc3d; stroke:none;" d="M749 241.424C728.439 244.124 708.038 244.785 688 251.224C684.816 252.247 682.092 254.171 679 255.39C675.098 256.929 670.856 257.187 667 258.904C631.531 274.696 599.55 297.802 575.011 328.171C568.18 336.624 563.194 345.757 557.652 354.985C555.921 357.868 553.336 360.126 551.752 363.089C497.166 465.232 528.024 597.219 622 664.982C647.656 683.482 679.168 696.111 710 702.661C732.683 707.48 756.916 709.709 780 706.711C818.641 701.692 855.316 689.256 888 667.758C950.154 626.878 987.739 554.578 990.961 481C994.395 402.561 952.671 323.661 887.576 280.428C871.303 269.62 853.22 261.598 835 254.841C813.43 246.842 790.93 242.547 768 241.985C761.552 241.827 755.494 240.572 749 241.424z"/>
<path style="fill:#020201; stroke:none;" d="M779 458C770.787 457.159 762.299 451.669 755 447.941C744.207 442.43 733.044 437.773 722.039 432.721C714.469 429.246 705.664 423.619 697.001 426.728C688.311 429.846 685.227 439.283 682.078 447C679.536 453.23 676.527 459.778 673.371 465.714C667.793 476.209 662.796 487.175 657.823 498C654.162 505.966 650.427 513.078 653.221 522C656.776 533.352 671.291 536.689 681 541.424C705.029 553.141 729.425 564.429 754 575.003C762.138 578.505 771.805 586.88 781.001 585.815C793.341 584.386 796.362 573.793 800.773 564C808.026 547.9 815.854 531.553 824.294 516C828.094 508.997 833.29 499.184 831.62 491C829.313 479.688 812.898 475.301 803.83 470.641C800.669 469.017 793.845 468.019 793.021 463.892C792.049 459.026 799.778 453.262 803.04 450.654C806.141 448.175 809.472 446.073 813 444.259C817.721 441.832 822.672 439.746 828 439.174C834.287 438.498 840.801 438.986 847 440.084C886.216 447.031 897.099 493.513 889.636 527C887.371 537.162 883.885 547.885 878.652 556.961C846.529 612.669 768.543 628.051 711 609.536C657.727 592.395 616.526 541.706 614.039 485C612.517 450.292 621.462 415.997 642.774 388.17C689.328 327.382 785.789 313.15 848.985 355.543C859.303 362.465 868.245 371.241 877 380C879.306 382.307 884.793 386.16 884.793 389.79C884.793 391.834 882.459 393.054 880.98 393.985C877.288 396.308 873.216 397.905 870.133 401.105C860.56 411.041 869.422 427.461 879.039 433.895C886.589 438.947 895.185 442.192 904 444.25C907.577 445.085 912.474 445.164 913.678 440.811C916.21 431.661 900.905 425.943 909.059 419.299C910.258 418.322 911.631 417.372 913 416.653C925.6 410.038 921.56 432.368 931.835 431.549C938.336 431.03 939.565 422.912 940.155 418C941.655 405.51 944.42 392.144 936.197 381.184C931.275 374.625 921.477 370.823 914 374.939C910.445 376.896 902.795 384.515 898.633 381.342C895.354 378.841 892.97 374.015 889.996 371C881.285 362.17 871.913 353.47 861.576 346.559C819.778 318.612 765.71 309.572 717 322.921C680.332 332.969 645.474 355.728 624.548 388C582.275 453.193 595.165 546.387 655 596.695C667.373 607.098 683.957 614.966 699 620.529C755.459 641.407 832.266 633.466 874.826 586.985C889.586 570.866 898.729 551.082 903.499 530C907.175 513.755 907.592 495.201 903.124 479C900.52 469.556 897.217 460.044 891.455 452C873.343 426.716 839.306 417.669 811 429C799.148 433.745 781.729 444.468 779 458z"/>
<path style="fill:#efcc3d; stroke:none;" d="M915 387L915 391L920 391C919.032 388.036 918.066 387.497 915 387M923.603 390.157C921.87 391.315 923.664 394.001 925.397 392.843C927.13 391.686 925.336 388.998 923.603 390.157M914 395L914 399C916.626 398.161 917.161 397.627 918 395L914 395M921 397L921 401L925 401C924.161 398.373 923.626 397.839 921 397M883 406C883.627 408.936 884.147 410.013 887 411L887 406L883 406M890 412L895 412L895 408C891.934 408.497 890.968 409.036 890 412M881 414L881 418C883.626 417.161 884.161 416.627 885 414L881 414M893 420C891.782 412.691 885.691 418.782 893 420M733 459.514C725.344 461.056 718.189 463.649 712 468.518C688.619 486.91 689.049 524.04 712.001 542.726C723.083 551.749 737.326 554.352 751 551.6C758.044 550.183 763.114 547.812 769.015 543.768C773.693 540.562 777.101 536.665 780.326 532.039C803.72 498.485 773.927 451.269 733 459.514z"/>
<path style="fill:#020201; stroke:none;" d="M736 463.514C724.734 465.77 713.544 470.401 706.569 480C692.796 498.953 698.562 529.114 718 541.983C727.034 547.964 739.477 549.429 750 547.535C777.259 542.629 792.168 510.446 780.25 486C776.953 479.237 771.104 474.192 764.961 470.08C760.68 467.215 756.077 465.076 751 464.096C746.071 463.144 740.974 462.518 736 463.514z"/>
<path style="fill:#efcc3d; stroke:none;" d="M774.001 552.587C759.664 556.344 767.142 578.703 780.961 574.343C795.12 569.876 787.753 548.983 774.001 552.587z"/>
<path style="fill:#020201; stroke:none;" d="M774.019 555.989C763.406 560.993 772.259 576.553 781.856 570.972C790.467 565.965 783.473 551.531 774.019 555.989z"/>
<path style="fill:#efcc3d; stroke:none;" d="M398 800L353 800L353 819L372 819C361.006 833.796 341.579 825.039 336.247 810C331.75 797.316 346.352 782.469 359 784.441C362.238 784.945 365.231 785.852 368 787.633C370.142 789.011 372.22 791.286 374.961 791.254C379.027 791.206 389.457 783.44 387.824 778.964C386.512 775.37 382.082 772.638 379 770.714C368.881 764.395 354.325 762.674 343 766.7C318.822 775.294 308.571 802.404 320.174 825C330.775 845.644 361.788 854.63 380.83 839.621C394.355 828.96 398 816.439 398 800M449 765C448.311 771.874 444.809 778.55 442.41 785C437.715 797.62 433.036 810.243 428.715 823C426.192 830.449 422.634 837.038 422 845C427.216 845 437.055 846.888 441.501 843.821C444.907 841.471 446.21 834.797 447 831L475 831C475.334 834.824 476.076 841.561 479.51 843.972C483.922 847.071 494.752 845 500 845C499.184 835.119 494.101 825.075 490.333 816C486.834 807.57 484.577 798.536 481.255 790C478.152 782.029 473.494 773.38 472 765L449 765M525 765L525 820C525 826.036 522.846 837.134 525.603 842.566C527.612 846.523 542.388 846.523 544.397 842.566C545.95 839.506 545 834.338 545 831L545 806C552.342 811.637 558.56 823.445 562 832C576.15 831.54 575.268 811.045 586 805L586 845C590.282 845 602.073 847.058 604.972 843.397C606.301 841.719 605.985 838.992 605.999 837L606 822L606 765C600.301 765 591.182 763.271 586.054 766.028C582.643 767.861 581.082 771.874 579.128 775C574.795 781.932 569.895 789.351 567 797L564 797C560.793 789.262 555.537 782.134 551.154 775C549.384 772.12 547.898 767.791 544.857 766.028C539.961 763.191 530.526 765 525 765M640 765L640 845L673 845C677.851 845 684.177 846.07 688.852 844.682C693.23 843.382 693.493 830.858 690.972 827.742C689.393 825.79 686.237 826.035 684 826.004C677.188 825.909 660.607 829.48 661.078 819.004C661.617 807 680.273 816.822 686.397 811.972C689.839 809.246 688 798.984 688 795C681.669 795 675.331 795.085 669 794.996C666.283 794.958 662.768 795.094 661.028 792.566C659.306 790.066 660 785.875 660 783L691 783L691 765L640 765M770 765L770 820C770 826.135 767.87 837.127 770.603 842.682C772.491 846.518 787.509 846.518 789.397 842.682C790.708 840.016 790 835.883 790 833L790 813L821 813L821 845L841 845L841 765L821 765L821 785C820.995 787.659 821.467 791.326 819.397 793.397C817.326 795.467 813.659 794.995 811 795L790 795L790 765L770 765M866 845C871.307 845 882.009 847.053 886.502 843.972C890.808 841.019 889.868 833.766 895.108 831.603C901.729 828.871 912.873 831 920 831C920.503 834.66 921.41 841.595 924.585 843.972C928.771 847.107 939.919 845 945 845C944.59 838.891 941.274 832.783 939.275 827C934.854 814.212 929.709 801.741 925.18 789C922.947 782.72 921.452 771.525 916.914 766.603C914.057 763.503 899.941 763.927 896.275 765.603C891.057 767.988 889.66 779.167 887.541 784C882.59 795.289 879.085 807.393 874.949 819C871.893 827.578 867.859 836.063 866 845M950 765C950.805 769.532 952.939 773.603 954.279 778C958.998 793.479 964.829 808.555 969.565 824C971.266 829.546 973.142 841.934 979.108 844.397C982.759 845.904 996.239 846.55 999.015 843.397C1000.63 841.561 1001.09 838.268 1001.83 836C1003.7 830.319 1005.83 824.715 1007.59 819C1013 801.419 1022.31 783.184 1025 765C1019.75 765 1008.92 762.929 1004.51 766.028C1001.17 768.371 1000.21 775.337 999.001 779C995.366 790.013 992.054 801.127 988 812C983.001 804.47 981.549 795.567 978.964 787C976.729 779.589 973.576 772.615 972 765L950 765M1049 765L1049 845L1087 845C1090.32 845 1097.63 846.351 1099.97 843.397C1102.79 839.839 1101 830.363 1101 826L1070 826C1070 823.154 1069.56 819.825 1070.32 817.059C1072.91 807.625 1090.48 816.657 1096.4 811.972C1099.84 809.246 1098 798.984 1098 795C1091.67 795 1085.33 795.043 1079 794.999C1076.58 794.983 1073.47 795.267 1071.6 793.397C1069.18 790.972 1070 786.113 1070 783L1100 783L1100 765L1049 765M1131 765L1131 822L1131 836.999C1131.01 838.957 1130.7 841.619 1132.03 843.258C1135.09 847.041 1146.58 845 1151 845L1151 803C1158.63 811.29 1164.83 821.418 1170.74 831C1173.18 834.95 1175.87 842.404 1180.33 844.397C1183.46 845.796 1193.63 846.269 1195.4 842.682C1198.13 837.127 1196 826.135 1196 820L1196 765L1176 765L1176 788C1176 792.878 1176.5 797.27 1173 801C1170.87 791.678 1163.44 784.98 1158.91 776.83C1156.85 773.114 1155.05 767.389 1150.74 765.589C1145.41 763.363 1136.73 765 1131 765z"/>
<path style="fill:#020201; stroke:none;" d="M459 797C458.268 802.311 455.292 806.642 455 812C457.678 812 462.159 812.78 464.393 810.972C468.004 808.049 463.412 800.157 462 797L459 797M905 798C902.705 802.462 900.692 807.007 900 812L911 812C910.59 806.986 909.116 802.546 907 798L905 798z"/>
<path style="fill:#efcc3d; stroke:none;" d="M185 924L212 924L212 916L194 916L194 882C191.576 882.009 187.743 881.435 186.028 883.603C183.955 886.223 185 891.877 185 895L185 924M251 882.613C236.192 886.584 230.151 905.298 240.264 916.957C246.072 923.652 255.579 925.558 264 923.39C277.392 919.943 284.703 904.28 277.146 892.004C272.098 883.805 260.064 880.183 251 882.613M346 894C341.302 877.619 317.388 879.861 309.599 891.989C303.271 901.842 306.19 914.778 316.001 921.436C323.441 926.486 337.968 925.025 343.663 917.9C346.136 914.805 344.775 911.986 340.981 911.207C334.868 909.951 330.822 917.853 324.004 915.393C312.485 911.237 314.303 894.665 325 890.909C331.512 888.622 333.23 894.962 338.375 896.268C340.821 896.889 343.798 894.86 346 894M370 924L380 924C380.845 921.305 381.657 918.806 382 916C385.94 916 391.183 915.128 394.867 916.742C397.794 918.025 398.07 921.294 400.509 922.973C403 924.688 407.135 924 410 924C407.772 913.57 403.573 901.832 399.374 892C398.245 889.357 397.424 884.13 394.683 882.742C391.09 880.924 385.497 881.831 383.214 885.148C380.193 889.537 379.449 895.058 377.811 900C375.204 907.863 370.73 915.692 370 924M436 924L463 924C462.976 922.013 463.311 919.276 461.972 917.602C459.221 914.162 449 916 445 916C445 906.469 445.822 896.531 444.941 887.044C444.619 883.571 441.066 880.357 437.603 883.032C434.919 885.105 436 891.054 436 894L436 924M518 882C518.908 892.396 523.874 903.349 527.691 913C528.917 916.099 529.442 920.991 532.419 922.972C535.18 924.81 539.843 924 543 924C545.291 914.096 549.235 904.581 552.576 895C553.51 892.321 556.605 886.3 554.868 883.603C553.316 881.194 548.415 882.002 546 882C544.153 890.926 540.526 899.272 538 908L536 908C534.441 902.612 532.493 897.351 530.809 892C529.923 889.187 529.121 885.667 526.698 883.742C524.258 881.805 520.928 882.026 518 882M582 924L592 924L592 883C589.384 882.516 585.039 881.084 583.028 883.604C580.95 886.208 582 891.889 582 895L582 924M620 924C626.768 924 634.349 924.954 641 923.621C656.189 920.577 661.34 901.974 652.49 890.019C649.213 885.592 644.247 883.602 639 882.619C634.727 881.818 623.875 880.051 621.028 884.318C619.047 887.287 620 892.611 620 896L620 924M684 924L712 924L712 916L693 916L693 906L712 906C711.977 904.048 712.309 901.376 710.972 899.741C707.976 896.075 697.286 898 693 898C693.355 887.1 704.845 890 713 890C712.976 888.013 713.311 885.276 711.972 883.602C709.229 880.173 698.954 882 695 882C692.197 882 687.025 881.082 685.028 883.603C682.954 886.221 684 891.879 684 895L684 924M753 882.638C739.98 886.401 732.525 903.643 740.649 914.985C746.684 923.412 758.251 926.151 767.999 923.2C780.174 919.515 785.985 904.057 779.772 893.004C774.897 884.332 762.453 879.906 753 882.638M850 898C845.699 898 833.954 895.943 831.028 899.602C829.689 901.276 830.024 904.013 830 906C833.763 906.01 837.3 906.313 841 907C840.158 909.155 839.358 910.999 837.656 912.661C826.356 923.696 810.863 903.586 823.058 893.533C824.488 892.354 826.199 891.252 828 890.746C832.735 889.417 835.776 893.316 840 894.397C842.807 895.115 845.408 893.943 848 893C840.577 877.136 817.072 879.478 810.133 894.579C808.472 898.195 808.658 903.146 809.329 907C811.906 921.803 831.269 930.545 843.331 920.011C850.255 913.964 850 906.418 850 898M874 924L884 924C884.48 921.806 884.817 919.219 886.564 917.602C892.595 912.017 901.905 917.17 903 924L913 924C912.229 915.174 908.209 906.399 905.505 898C904.167 893.847 903.192 888.807 900.725 885.148C898.298 881.548 891.912 880.861 888.302 883.179C885.039 885.275 884.383 890.598 883.258 894C879.973 903.93 876.342 913.784 874 924M939 924L949 924L949 901C954.038 903.288 957.141 908.41 960 913C966.861 911.068 967.974 903.971 974 901L974 924L984 924L984 891C983.99 886.082 983.556 880.709 977.015 882.438C969.373 884.458 966.799 895.389 960 899C958.293 893.67 953.09 885.667 947.982 883.028C945.512 881.752 941.054 881.37 939.603 884.318C938.063 887.447 939 892.602 939 896L939 924M1012 882L1012 924L1041 924L1041 917L1021 917L1021 906L1040 906C1039.98 904.013 1040.31 901.276 1038.97 899.602C1036.22 896.162 1026 898 1022 898C1022.35 887.349 1032.97 890 1041 890L1041 883C1031.52 881.24 1021.61 882 1012 882M1130 894C1128.06 881.439 1107.99 877.691 1100.86 888.185C1095.12 896.622 1103.5 904.329 1111 906.806C1113.43 907.609 1119.79 908.676 1119.79 912.155C1119.79 915.268 1115.42 916.114 1113.09 915.702C1109.29 915.032 1102.41 906.18 1099.18 913.394C1097.78 916.508 1101.82 919.93 1104 921.486C1109.55 925.441 1121.54 925.494 1126.5 920.442C1127.72 919.201 1128.52 917.615 1129.08 915.985C1129.51 914.728 1129.86 913.338 1129.88 912C1130.05 900.26 1116.2 902.962 1110.47 896.444C1107.77 893.386 1112.04 890.49 1115 890.881C1117.96 891.272 1119.65 893.896 1122.29 894.887C1124.71 895.797 1127.59 894.487 1130 894M1154 890C1156.95 890.008 1161.09 889.48 1163.4 891.742C1165.66 893.954 1165 898.146 1165 901L1165 924L1175 924L1175 890L1185 890C1184.97 887.788 1185.37 884.585 1183.4 883.028C1181.71 881.701 1179 882.015 1177 882.001C1172 881.966 1167 881.966 1162 882.001C1160 882.015 1157.29 881.701 1155.6 883.028C1153.63 884.585 1154.03 887.788 1154 890M1223 882.818C1209.9 887.485 1202.89 904.099 1211.76 915.826C1217.76 923.751 1229.77 926.361 1239 923.03C1241.57 922.103 1243.94 920.587 1245.98 918.787C1263.78 903.109 1244.18 875.271 1223 882.818M1280 882L1280 924L1290 924C1290 921.184 1288.41 907.637 1293.95 909.346C1298.89 910.872 1299.42 919.13 1302.81 922.397C1305.29 924.783 1309.85 924 1313 924C1312.08 917.526 1307.41 912.004 1305 906C1313.45 901.846 1314.6 889.293 1305.98 884.417C1298.61 880.247 1288.16 882 1280 882M1339 924L1368 924L1368 916L1349 916L1349 906L1367 906L1367 899L1349 899L1349 890L1368 890C1367.98 888.013 1368.31 885.276 1366.97 883.602C1364.23 880.173 1353.95 882 1350 882C1347.2 882 1342.02 881.082 1340.03 883.603C1337.95 886.221 1339 891.879 1339 895L1339 924z"/>
<path style="fill:#020201; stroke:none;" d="M254 890.576C239.413 894.5 243.775 920.053 259 916.489C263.084 915.533 267.707 912.84 269.566 908.981C274.341 899.071 264.543 887.739 254 890.576M630 916C633.72 916 638.34 916.618 641.696 914.682C647.4 911.391 648.977 900.542 645.142 895.34C642.973 892.399 634.087 887.82 631.028 891.607C629.522 893.471 630.005 896.782 630 899L630 916M756.004 890.576C746.135 893.32 744.477 907.217 751.764 913.475C755.069 916.314 760.974 916.625 764.996 915.347C780.323 910.48 771.47 886.277 756.004 890.576M1227 890.576C1209.52 895.292 1217.89 920.482 1234.98 915.427C1249.59 911.11 1242.72 886.333 1227 890.576M1290 900C1292.28 900 1294.73 900.221 1296.98 899.852C1309.84 897.748 1293.23 883.413 1290.32 893.147C1289.69 895.256 1290 897.825 1290 900M893 895L889 908L898 908L895 895L893 895M390 896C387.547 899.874 386.236 903.407 386 908L394 908C393.426 903.735 392.759 899.366 390 896z"/>
</svg>
